<svg xmlns="http://www.w3.org/2000/svg" xml:space="preserve" viewBox="0 0 1858 1308"><path fill="#2563eb" d="M454 41.328c54.163 0 107.826.063 161.489-.115 4.482-.015 6.83 1.485 8.99 5.233C727.206 224.711 830.01 402.93 932.822 581.145c92.017 159.503 184.024 319.01 276.207 478.417 2.748 4.753 2.509 7.94-.157 12.488-29.59 50.468-58.946 101.071-88.377 151.632-.917 1.575-1.951 3.08-3.561 5.608L758.97 611.006c-8.31 14.291-15.995 27.462-23.637 40.657-22.99 39.693-45.885 79.441-69.052 119.03-2.488 4.252-2.143 7.21.198 11.265 61.742 106.935 123.341 213.952 185.062 320.898 1.785 3.092 1.984 5.237.1 8.456-30.14 51.49-60.11 103.079-90.133 154.637-.828 1.42-1.81 2.75-3.089 4.676L47.043 41.617c2.887-.13 4.646-.279 6.406-.28 60.163-.011 120.325.036 180.487-.112 3.896-.01 5.961 1.245 7.84 4.505 106.76 185.153 213.587 370.265 320.42 555.374.897 1.553 1.974 3.003 3.285 4.98 8.81-15.499 17.355-30.482 25.855-45.491 21.951-38.761 43.822-77.568 65.924-116.243 2.02-3.535 1.915-5.952-.065-9.364-68.72-118.463-137.341-236.985-205.972-355.501a15746.495 15746.495 0 0 1-19.432-33.677c-.64-1.112-1.178-2.284-2.301-4.48H454zm1045.977 199.62c37.796-65.345 75.395-130.381 112.918-195.461 1.667-2.89 3.449-4.254 7.022-4.247 61.164.122 122.33.086 183.494.1 1.433 0 2.866.18 5.378.349l-522.436 898.698-518.425-898.76c2.458-.132 4.014-.288 5.569-.288 60.164-.013 120.329.01 180.493-.07 3.366-.004 5.397.935 7.164 3.998C1030.35 165.178 1099.65 285.03 1168.918 404.9c38.917 67.347 77.805 134.71 116.72 202.059.726 1.255 1.631 2.406 2.94 4.316 5.119-8.885 9.909-17.161 14.664-25.458 26.033-45.417 52.018-90.861 78.157-136.217 2.09-3.628 2.098-6.36-.012-10.003-75.711-130.734-151.321-261.527-226.933-392.318-.9-1.558-1.652-3.2-2.87-5.58 2.166-.152 3.718-.357 5.27-.358 60.164-.016 120.33.023 180.493-.101 3.742-.008 5.562 1.395 7.313 4.492 42.863 75.807 85.824 151.559 128.778 227.314 1.131 1.996 2.386 3.923 4.083 6.699a19767.95 19767.95 0 0 1 22.456-38.798z"/></svg>