<svg xmlns="http://www.w3.org/2000/svg" xmlns:xlink="http://www.w3.org/1999/xlink" version="1.1" id="Layer_1" x="0px" y="0px" width="100%" viewBox="0 0 1858 1308" enable-background="new 0 0 1858 1308" xml:space="preserve">
<path fill="#2563eb" opacity="1.000000" stroke="none" d=" M454.000122,41.327782   C508.163055,41.327793 561.826172,41.390762 615.488586,41.212742   C619.970703,41.197876 622.319580,42.697536 624.479858,46.446411   C727.204712,224.711197 830.009888,402.929718 932.821228,581.144714   C1024.837524,740.647522 1116.844849,900.155701 1209.027832,1059.562012   C1211.776367,1064.314941 1211.536621,1067.502563 1208.870728,1072.049683   C1179.281494,1122.517578 1149.924561,1173.121460 1120.493896,1223.682251   C1119.577393,1225.256592 1118.542725,1226.762207 1116.932617,1229.290039   C997.555298,1023.097656 878.504272,817.468872 758.970276,611.005798   C750.659668,625.297119 742.974731,638.467529 735.332642,651.662659   C712.343445,691.356140 689.447571,731.104126 666.280701,770.693604   C663.792664,774.945374 664.137878,777.903076 666.479248,781.958252   C728.221191,888.892639 789.820190,995.909546 851.541443,1102.855957   C853.325867,1105.947876 853.525085,1108.092529 851.640625,1111.311890   C821.501648,1162.802124 791.530884,1214.390991 761.507629,1265.948975   C760.680481,1267.369507 759.697266,1268.699219 758.419250,1270.625244   C521.271301,860.916870 284.386780,451.663666 47.042824,41.616703   C49.929569,41.486595 51.689354,41.338299 53.449177,41.337948   C113.611656,41.325920 173.774246,41.372517 233.936356,41.224724   C237.831940,41.215153 239.896973,42.470367 241.776718,45.730400   C348.535217,230.882660 455.362732,415.995148 562.196777,601.103821   C563.093323,602.657288 564.170349,604.106567 565.480957,606.084167   C574.291443,590.585449 582.836182,575.601685 591.336121,560.592590   C613.287292,521.831787 635.158142,483.025208 657.259705,444.350403   C659.280029,440.815033 659.174683,438.398254 657.195251,434.986084   C588.474243,316.522614 519.853699,198.000900 451.223297,79.484901   C444.728546,68.269341 438.258179,57.039654 431.791138,45.808086   C431.150665,44.695751 430.613251,43.524071 429.489746,41.327732   C438.036102,41.327732 445.768127,41.327732 454.000122,41.327782  z"/>
<path fill="#2563eb" opacity="1.000000" stroke="none" d=" M1499.977051,240.948120   C1537.773071,175.602982 1575.371582,110.566566 1612.894897,45.486855   C1614.561646,42.596188 1616.343994,41.233318 1619.917236,41.240433   C1681.081421,41.362255 1742.246094,41.325943 1803.410522,41.339966   C1804.843628,41.340294 1806.276855,41.520367 1808.789062,41.689049   C1634.563843,341.392334 1460.747070,640.393188 1286.353149,940.386719   C1113.304688,640.383789 940.876160,341.455688 767.928162,41.626934   C770.386047,41.495121 771.941528,41.339081 773.497009,41.338757   C833.661499,41.326202 893.825989,41.349873 953.990417,41.269264   C957.355591,41.264755 959.386780,42.203873 961.154114,45.266582   C1030.350342,165.178406 1099.648926,285.031158 1168.917847,404.901062   C1207.835205,472.247681 1246.722778,539.611694 1285.638184,606.959595   C1286.363525,608.215027 1287.269287,609.366150 1288.577515,611.276428   C1293.696655,602.391479 1298.486694,594.114563 1303.242188,585.817749   C1329.274780,540.400757 1355.260498,494.956757 1381.398926,449.600677   C1383.489624,445.972870 1383.497070,443.241272 1381.387207,439.598267   C1305.675659,308.864258 1230.066040,178.071182 1154.453857,47.279663   C1153.553589,45.722393 1152.802124,44.079117 1151.583984,41.700447   C1153.750366,41.547588 1155.302124,41.342762 1156.854004,41.342346   C1217.018433,41.326130 1277.183105,41.365063 1337.347290,41.240963   C1341.089233,41.233250 1342.909058,42.636166 1344.660034,45.732918   C1387.523071,121.539864 1430.483643,197.291733 1473.437622,273.047211   C1474.569336,275.043274 1475.823975,276.969696 1477.520630,279.745697   C1485.200806,266.454285 1492.483032,253.851471 1499.977051,240.948120  z"/>
</svg>